PathFileType	4	(X/Y/Z)	 s02c0201.trc
DataRate	CameraRate	NumFrames	NumMarkers	Units	OrigDataRate	OrigDataStartFrame	OrigNumFrames
200	200	6	51	mm	200	751	2000
Frame#	Time	racr			lacr			c7			jug			rlel			rdr			llel			ldr			s2			lic			ric			lasi			rasi			rpsi			lpsi			rgt			lgt			rth1			rth2			rth3			rth4			rlfc			rmfc			rsh1			rsh2			rsh3			rsh4			rlmal			rmmal			rcal			rtoe			rmt5			rmt1			lth1			lth2			lth4			lth3			llfc			lmfc			lsh1			lsh2			lsh3			lsh4			llmal			lmmal			lcal			ltoe			lmt5			SBIKE			LBIKE			RBIKE			
		X1	Y1	Z1	X2	Y2	Z2	X3	Y3	Z3	X4	Y4	Z4	X5	Y5	Z5	X6	Y6	Z6	X7	Y7	Z7	X8	Y8	Z8	X9	Y9	Z9	X10	Y10	Z10	X11	Y11	Z11	X12	Y12	Z12	X13	Y13	Z13	X14	Y14	Z14	X15	Y15	Z15	X16	Y16	Z16	X17	Y17	Z17	X18	Y18	Z18	X19	Y19	Z19	X20	Y20	Z20	X21	Y21	Z21	X22	Y22	Z22	X23	Y23	Z23	X24	Y24	Z24	X25	Y25	Z25	X26	Y26	Z26	X27	Y27	Z27	X28	Y28	Z28	X29	Y29	Z29	X30	Y30	Z30	X31	Y31	Z31	X32	Y32	Z32	X33	Y33	Z33	X34	Y34	Z34	X35	Y35	Z35	X36	Y36	Z36	X37	Y37	Z37	X38	Y38	Z38	X39	Y39	Z39	X40	Y40	Z40	X41	Y41	Z41	X42	Y42	Z42	X43	Y43	Z43	X44	Y44	Z44	X45	Y45	Z45	X46	Y46	Z46	X47	Y47	Z47	X48	Y48	Z48	X49	Y49	Z49	X50	Y50	Z50	X51	Y51	Z51	
751	3.7550	581.731030	1241.077966	-199.049538	525.974917	1277.543766	-512.542175	531.101139	1302.034741	-360.693809	476.916102	1171.543575	-358.031805	551.008011	1010.604158	-56.442573	706.810079	885.614712	-110.081281	518.798714	1004.550055	-607.103103	697.819132	894.690414	-517.057999	12.735420	1118.247538	-284.233392	125.372727	1139.650372	-434.730058	157.691030	1121.239294	-152.405387	167.751241	1110.360713	-415.090502	204.063889	1090.226085	-185.897326	46.872153	1167.942391	-232.123989	39.748747	1195.579080	-312.835238	122.063545	1021.081567	-118.221849	95.597371	1067.454549	-474.970867	195.440942	946.314160	-115.374978	257.383399	884.161919	-123.706137	285.186800	804.000334	-108.183765	281.833439	898.630185	-148.667862	328.490811	674.503680	-152.166343	311.266714	659.784483	-258.583296	299.298106	570.941481	-132.169531	287.387883	483.836061	-149.189153	238.885683	412.915542	-142.043756	298.399403	482.136256	-186.658234	183.613309	305.953119	-145.614329	196.723962	319.836690	-226.155519	99.943800	299.929091	-188.309605	333.304768	131.193981	-186.552352	235.208642	180.193585	-130.410722	264.985605	176.585858	-236.386423	226.210747	1031.235051	-490.658444	311.070998	1022.151983	-487.224533	322.777534	1051.758903	-467.514669	382.760398	969.861159	-494.503847	478.487465	929.428760	-480.145131	488.598079	900.323114	-368.646603	451.886585	834.864923	-495.752863	424.819678	754.006124	-480.274933	359.191634	692.111902	-485.162948	443.335143	745.055933	-444.631331	284.680148	601.760306	-473.901908	301.584615	597.455394	-395.222648	206.351656	564.508459	-437.860358	483.506381	487.779454	-432.343943	378.026951	489.393735	-498.313865	-162.053644	860.092863	-310.833041	37.438761	87.485734	-514.098010	34.016469	83.393726	-114.034939	
752	3.7600	581.974319	1239.901730	-201.199398	523.852316	1276.318919	-514.000727	530.155667	1300.856676	-362.580482	475.570641	1170.563541	-359.304882	551.079636	1010.362691	-57.029303	706.607685	885.313210	-109.972904	517.188438	1003.211646	-607.654630	697.233564	894.688514	-517.143694	12.215998	1118.008688	-283.431224	124.955514	1139.173432	-434.216942	156.748148	1121.401922	-151.502653	167.624276	1110.172265	-414.654098	203.133329	1090.345114	-185.001216	45.986090	1168.280670	-231.366794	39.176119	1195.886479	-312.189559	121.599314	1021.161386	-117.301680	95.649859	1066.982860	-473.541525	196.009260	946.772751	-115.283828	258.949997	885.680510	-123.692370	287.890653	805.804632	-108.966177	283.364974	900.820400	-148.484483	332.442094	676.799752	-153.055752	314.314363	662.504316	-259.743491	301.159642	573.183338	-133.358995	286.515107	486.586822	-150.468363	236.452580	416.934048	-143.104993	297.603323	484.600046	-187.990486	177.701801	311.292282	-146.162621	191.384557	325.010500	-227.019281	94.173494	306.337578	-189.142867	324.884632	134.062776	-186.496368	227.436585	184.750750	-130.808314	257.729826	180.308133	-236.527451	225.805298	1028.959226	-490.263621	310.586432	1018.757337	-487.216333	322.793430	1048.248604	-467.758725	381.548603	965.536250	-494.756256	476.687536	923.771119	-480.780321	487.525438	894.712935	-369.350101	450.936982	828.391785	-496.010381	425.221619	747.103732	-480.695950	360.455132	684.347552	-485.224410	443.909863	738.453460	-445.065138	287.276832	593.164020	-473.256749	304.222797	588.991525	-394.608415	210.344514	552.789561	-438.013092	489.974453	487.220750	-432.836520	384.376987	484.588131	-498.771704	-162.168278	860.049480	-311.199814	37.437311	87.410723	-514.109530	34.015619	83.393962	-114.058944	
753	3.7650	582.266888	1238.689465	-203.176006	521.762869	1274.962873	-515.467357	529.235636	1299.645324	-364.401325	474.222569	1169.567289	-360.463462	551.030449	1010.012915	-57.687998	706.416573	885.049981	-109.810724	515.419381	1001.747542	-607.813631	696.598981	894.545362	-517.103222	11.698889	1117.787355	-282.764855	124.602977	1138.502244	-433.669244	155.931088	1121.646183	-150.858101	167.532280	1109.844230	-414.206018	203.001683	1090.327115	-182.461218	45.274315	1168.454580	-230.741810	39.006552	1195.590596	-311.738496	121.167382	1021.180077	-116.416111	95.808707	1066.204227	-472.254720	196.643453	947.472926	-115.301712	260.541624	887.290355	-123.852272	290.987330	808.038683	-109.374215	284.900904	903.126169	-148.337394	336.417662	679.208036	-153.987947	317.594709	665.330184	-260.847498	303.144232	575.602495	-134.525594	285.519568	489.497330	-151.843576	234.174844	421.187370	-144.099745	296.830701	487.039744	-189.411612	172.143861	316.925057	-146.600090	186.448326	330.436990	-227.892598	88.559896	313.230787	-189.876580	316.721098	137.530909	-186.282159	219.900728	189.657860	-131.161161	251.280649	183.554924	-236.484979	226.881677	1026.918566	-490.660399	310.170310	1014.988410	-487.350171	322.861874	1044.350677	-467.964055	380.285652	960.723736	-495.096598	475.182100	917.080126	-481.261119	486.129862	888.368504	-370.181280	449.890196	820.939516	-496.606232	425.470678	739.252069	-480.958308	361.691526	675.561197	-485.192633	444.243396	731.231799	-445.386381	289.722081	583.963165	-472.332808	306.918601	579.744269	-393.803866	213.967107	540.399449	-437.375561	496.015698	486.081965	-433.803278	390.176079	479.274628	-499.334991	-162.132632	859.985892	-311.448412	37.438622	87.249489	-514.166311	34.002660	83.356127	-114.069001	
754	3.7700	582.427055	1237.457570	-204.919873	519.794044	1273.455086	-516.897034	528.363291	1298.477847	-366.114344	472.639635	1168.742181	-361.463377	550.858661	1009.646683	-58.272424	706.201449	884.825018	-109.680370	513.537856	1000.091392	-607.850122	695.942700	894.419285	-516.993779	11.193117	1117.588984	-282.291783	124.287609	1137.732246	-433.312177	154.911040	1121.558713	-150.140756	167.530502	1109.244799	-413.661350	202.877105	1090.079608	-180.979478	44.516350	1168.462882	-230.129037	41.460630	1194.202770	-312.076021	120.731474	1021.092417	-115.675525	96.001718	1065.195037	-471.286165	197.315385	948.160314	-115.368309	262.157994	889.072714	-123.983445	293.738381	810.186811	-110.164779	286.434949	905.403179	-148.277769	340.363321	681.607482	-154.854478	321.003290	668.232205	-261.869779	305.217791	578.216950	-135.684211	285.097350	492.525498	-153.013338	232.073577	425.731738	-144.958545	296.228239	489.886048	-190.685337	166.760435	323.051276	-147.106603	181.785513	336.055942	-228.501248	83.219285	320.386595	-190.760713	308.739001	141.271369	-186.071226	212.606023	195.048083	-131.486609	245.036549	187.435615	-236.222135	226.424007	1023.602727	-490.390921	309.709717	1010.914284	-487.577081	322.961554	1040.071704	-468.273637	379.040266	955.468979	-495.324242	472.989701	909.903623	-481.886136	484.456220	881.539622	-371.070609	448.690874	812.754570	-497.165055	425.655202	730.766109	-481.098855	362.879143	665.833153	-485.087957	444.334764	723.422595	-445.399440	292.141654	574.146243	-471.325164	309.614187	570.079909	-393.052711	217.871427	527.229656	-435.586614	501.822619	484.159775	-435.504163	395.562167	473.124613	-499.816628	-162.160058	859.810514	-311.765558	37.433411	87.031608	-514.255372	34.002847	83.321688	-114.102127	
755	3.7750	582.526541	1236.262683	-206.478266	517.918258	1272.047521	-518.314433	527.468020	1297.379416	-367.727057	471.138645	1167.945695	-362.430630	550.497343	1009.287460	-58.848993	705.906699	884.629442	-109.594245	511.771468	998.204775	-607.807452	695.189391	894.285735	-516.880013	10.609414	1117.022220	-281.855910	124.132642	1136.693858	-432.876855	153.947803	1121.303841	-149.536952	167.554268	1108.613162	-413.337088	201.589357	1089.475447	-180.310271	43.849634	1168.265719	-229.624322	41.193759	1193.486945	-311.806685	120.343989	1020.853838	-114.994525	96.160925	1064.084091	-470.320981	198.114564	948.942463	-115.550220	263.900141	890.922661	-124.131652	296.566895	812.429136	-110.944029	288.012520	907.774963	-148.252972	344.496789	684.228649	-155.564154	324.548779	671.232847	-262.782861	307.411836	581.020713	-136.721259	284.911378	495.964990	-154.102504	230.111522	430.515558	-145.747024	295.764697	492.927539	-191.834448	161.804469	329.549495	-147.476643	177.393449	342.152283	-229.013855	78.327481	328.118665	-191.386678	300.955818	145.466507	-185.921869	205.564890	200.875891	-131.731156	238.652013	192.317860	-236.273038	223.423309	1019.389393	-485.644148	309.259908	1006.626627	-487.833969	323.130204	1035.556137	-468.498904	377.716507	949.900642	-495.503275	470.274782	901.800176	-481.983800	482.452256	874.245654	-371.941747	447.376526	803.987637	-497.919903	425.683646	721.692619	-480.975779	364.108714	655.693967	-484.656157	444.326698	715.094810	-445.157400	294.751291	563.833780	-470.069765	312.892496	559.961137	-391.833920	222.157449	513.998058	-433.509737	507.494833	481.186018	-437.298183	400.707252	466.440998	-500.231158	-162.238437	859.678737	-311.996470	37.425367	86.837359	-514.292141	33.988372	83.281132	-114.145622	
756	3.7800	582.458832	1235.160133	-207.802284	516.098656	1270.575131	-519.770834	526.636619	1296.294496	-369.202815	469.460244	1167.280684	-363.148747	549.888062	1008.971338	-59.297990	705.524666	884.454841	-109.583651	509.971628	996.291044	-607.717474	694.412533	894.025180	-516.804797	10.084441	1116.390302	-281.446297	123.981100	1135.720288	-432.795597	153.057650	1121.034034	-149.021037	167.542601	1107.763778	-413.001905	200.390852	1088.623900	-179.655966	43.232698	1167.955909	-229.156215	40.920988	1192.677909	-311.607395	119.942605	1020.513390	-114.318936	96.223990	1062.777767	-469.536275	198.815326	949.836689	-115.804810	265.576675	892.851817	-124.388754	299.429296	814.738773	-111.671022	289.509423	910.253797	-148.292041	348.569147	686.770262	-156.275373	328.100815	674.273521	-263.561256	309.744954	584.025635	-137.638714	284.852193	499.471069	-155.117649	228.513610	435.519370	-146.534965	295.501978	496.203184	-192.818330	157.291944	336.260002	-147.939132	173.444560	348.684632	-229.480090	73.874599	336.260595	-191.973249	293.482481	149.979535	-185.856606	199.080894	206.990621	-132.100726	232.477554	197.567086	-236.292568	223.225056	1016.353924	-485.882370	308.798449	1002.133061	-488.127057	323.198642	1030.857901	-468.831213	376.303628	944.266026	-495.712894	467.881383	893.712943	-482.425383	480.213004	866.711970	-372.856449	445.649108	794.937504	-498.198702	425.699050	712.193674	-480.677886	365.465957	645.072450	-483.933352	444.260692	706.524613	-444.677807	297.702808	553.367835	-468.769987	316.658469	549.567694	-390.606093	226.603525	501.114095	-431.749189	513.079714	477.288169	-438.823957	406.021521	459.339738	-500.526902	-162.231830	859.441022	-312.615684	37.426456	86.688429	-514.267777	33.977255	83.251976	-114.183509	
